#N canvas 117 335 742 573 10;
#X floatatom 106 108 5 0 127 0 - - -;
#X floatatom 138 108 5 0 127 0 - - -;
#X floatatom 110 138 5 0 127 0 - - -;
#X floatatom 142 138 5 0 127 0 - - -;
#X obj 82 292 outlet;
#X obj 59 64 route \$1 \$2 \$3 \$4 \$5 \$6 \$7 \$8;
#X obj 40 266 ctlout \$1;
#X obj 110 266 ctlout \$2;
#X obj 180 266 ctlout \$3;
#X obj 250 266 ctlout \$4;
#X obj 59 14 r to_control_midi;
#X obj 270 55 inlet;
#X obj 310 55 inlet;
#X obj 350 55 inlet;
#X obj 390 55 inlet;
#X obj 132 292 outlet;
#X obj 192 292 outlet;
#X obj 242 292 outlet;
#X msg 59 37 \$2 \$1;
#X connect 0 0 6 0;
#X connect 0 0 4 0;
#X connect 1 0 7 0;
#X connect 1 0 15 0;
#X connect 2 0 8 0;
#X connect 2 0 16 0;
#X connect 3 0 9 0;
#X connect 3 0 17 0;
#X connect 5 0 0 0;
#X connect 5 1 1 0;
#X connect 5 2 2 0;
#X connect 5 3 3 0;
#X connect 10 0 18 0;
#X connect 11 0 0 0;
#X connect 12 0 1 0;
#X connect 13 0 2 0;
#X connect 14 0 3 0;
#X connect 18 0 5 0;
#X coords 0 -1 1 1 80 60 2 100 100;
