#N canvas 117 335 742 573 10;
#X floatatom 106 108 5 0 127 0 - - -;
#X floatatom 138 108 5 0 127 0 - - -;
#X floatatom 170 108 5 0 127 0 - - -;
#X floatatom 202 108 5 0 127 0 - - -;
#X floatatom 234 108 5 0 127 0 - - -;
#X floatatom 266 108 5 0 127 0 - - -;
#X floatatom 298 108 5 0 127 0 - - -;
#X floatatom 330 108 5 0 127 0 - - -;
#X obj 59 64 route \$1 \$2 \$3 \$4 \$5 \$6 \$7 \$8;
#X obj 60 195 ctlout \$1;
#X obj 130 195 ctlout \$2;
#X obj 200 195 ctlout \$3;
#X obj 270 195 ctlout \$4;
#X obj 340 195 ctlout \$5;
#X obj 410 195 ctlout \$6;
#X obj 480 195 ctlout \$7;
#X obj 550 195 ctlout \$8;
#X obj 59 14 r to_control_midi;
#X obj 270 55 inlet;
#X obj 310 55 inlet;
#X obj 350 55 inlet;
#X obj 390 55 inlet;
#X obj 430 55 inlet;
#X obj 470 55 inlet;
#X obj 510 55 inlet;
#X obj 550 55 inlet;
#X msg 59 37 \$2 \$1;
#X obj 82 292 change;
#X obj 82 315 outlet;
#X obj 132 292 change;
#X obj 132 315 outlet;
#X obj 192 292 change;
#X obj 192 315 outlet;
#X obj 242 292 change;
#X obj 242 315 outlet;
#X obj 292 292 change;
#X obj 292 315 outlet;
#X obj 342 292 change;
#X obj 342 315 outlet;
#X obj 402 292 change;
#X obj 402 315 outlet;
#X obj 452 315 outlet;
#X obj 452 292 change;
#X connect 0 0 9 0;
#X connect 0 0 27 0;
#X connect 1 0 10 0;
#X connect 1 0 29 0;
#X connect 2 0 11 0;
#X connect 2 0 31 0;
#X connect 3 0 12 0;
#X connect 3 0 33 0;
#X connect 4 0 13 0;
#X connect 4 0 35 0;
#X connect 5 0 14 0;
#X connect 5 0 37 0;
#X connect 6 0 15 0;
#X connect 6 0 39 0;
#X connect 7 0 16 0;
#X connect 7 0 42 0;
#X connect 8 0 0 0;
#X connect 8 1 1 0;
#X connect 8 2 2 0;
#X connect 8 3 3 0;
#X connect 8 4 4 0;
#X connect 8 5 5 0;
#X connect 8 6 6 0;
#X connect 8 7 7 0;
#X connect 17 0 26 0;
#X connect 18 0 0 0;
#X connect 19 0 1 0;
#X connect 20 0 2 0;
#X connect 21 0 3 0;
#X connect 22 0 4 0;
#X connect 23 0 5 0;
#X connect 24 0 6 0;
#X connect 25 0 7 0;
#X connect 26 0 8 0;
#X connect 27 0 28 0;
#X connect 29 0 30 0;
#X connect 31 0 32 0;
#X connect 33 0 34 0;
#X connect 35 0 36 0;
#X connect 37 0 38 0;
#X connect 39 0 40 0;
#X connect 42 0 41 0;
#X coords 0 -1 1 1 270 30 2 100 100;
