#N canvas -8 -8 1920 997 12;
#X obj 16 429 mover 1 200;
#X obj 96 409 mover 2 200;
#X obj 176 429 mover 3 200;
#X obj 16 619 mover 1 2000;
#X obj 96 599 mover 2 2000;
#X obj 176 619 mover 3 2000;
#X obj 16 808 mover 1 20000;
#X obj 96 788 mover 2 20000;
#X obj 176 808 mover 3 20000;
#X obj 447 428 mover 4 200;
#X obj 547 428 mover 5 200;
#X obj 547 618 mover 5 2000;
#X obj 547 807 mover 5 20000;
#X obj 447 807 mover 4 20000;
#X obj 447 618 mover 4 2000;
#X obj 4 1 mover_param;
#X obj 776 654 s to-motor;
#X obj 1214 628 s to-motor;
#X text 1472 452 REMONTEE 1 PEUR;
#X text 928 489 4(3) PUIS 1 4(2) ET 3;
#X text 1118 488 NEIGE 2;
#X text 1111 582 PLUS NEIGE 2;
#X text 1474 472 PUIS 3;
#X text 1472 497 DESCENTE 2;
#X text 1602 458 DESCENTE 1;
#X text 1607 482 PUIS 3;
#X msg 1372 522 \; X-1 5000 \; Y-1 5000 \; Z-1 5000 \; send-1 1 \;
;
#X msg 1106 606 \; X-2 -4000 \; Y-2 0 \; Z-2 -4000 \; send-2 1 \;;
#X msg 918 521 \; X-4 0 \; Y-4 4000 \; Z-4 0 \; send-4 1 \;;
#X msg 917 599 \; X-1 4000 \; Y-1 4000 \; Z-1 0 \; send-1 1 \;;
#X msg 918 679 \; X-4 4000 \; Y-4 0 \; Z-4 0 \; send-4 1 \;;
#X msg 917 760 \; X-3 4000 \; Y-3 4000 \; Z-3 0 \; send-3 1 \;;
#X msg 1467 521 \; X-1 10000 \; Y-1 10000 \; Z-1 14000 \; send-1 1
\;;
#X msg 1214 500 /SHIELD-1 vitesse 1300 \, /SHIELD-2 vitesse 1300 \,
/SHIELD-3 vitesse 1300 \, /SHIELD-4 vitesse 1300, f 15;
#X msg 776 525 /SHIELD-1 vitesse 1300 \, /SHIELD-2 vitesse 600 \, /SHIELD-3
vitesse 1300 \, /SHIELD-4 vitesse 1300, f 15;
#X msg 1107 505 \; X-2 4000 \; Y-2 0 \; Z-2 4000 \; send-2 1 \;;
#X msg 1468 598 \; X-3 15000 \; Y-3 15000 \; Z-3 19000 \; send-3 1
\;;
#X msg 1467 678 \; X-2 -7000 \; Y-2 -7000 \; Z-2 -13000 \; send-2 1
\;;
#X msg 1599 517 \; X-1 -6000 \; Y-1 -6000 \; Z-1 -12000 \; send-1 1
\;;
#X msg 1602 599 \; X-3 -6000 \; Y-3 -6000 \; Z-3 -12000 \; send-3 1
\;;
#X msg 1064 210 \; X-2 20000 \; Y-2 20000 \; Z-2 20000 \; send-2 1
\;;
#X obj 1064 180 bng 15 250 50 0 empty empty MISE 17 7 0 10 -262144
-1 -1;
#X text 1370 503 a une personne;
#X connect 33 0 17 0;
#X connect 34 0 16 0;
#X connect 41 0 40 0;
