#N canvas 494 137 885 622 12;
#X obj 101 101 cnv 15 78 79 empty empty \$1+\$2 20 12 0 14 -261682
-66577 0;
#X obj 101 180 cnv 15 78 79 empty empty \$1-\$2 20 12 0 14 -204786
-66577 0;
#X obj 131 122 bng 15 250 50 0 empty empty empty 17 7 0 10 -4034 -1
-1;
#X obj 111 152 bng 15 250 50 0 empty empty empty 17 7 0 10 -4034 -1
-1;
#X obj 151 152 bng 15 250 50 0 empty empty empty 17 7 0 10 -4034 -1
-1;
#X obj 132 200 bng 15 250 50 0 empty empty empty 17 7 0 10 -260097
-1 -1;
#X obj 112 230 bng 15 250 50 0 empty empty empty 17 7 0 10 -260097
-1 -1;
#X obj 152 230 bng 15 250 50 0 empty empty empty 17 7 0 10 -260097
-1 -1;
#X obj 131 142 bng 15 250 50 0 empty empty empty 17 7 0 10 -13381 -4034
-1;
#X obj 132 220 bng 15 250 50 0 empty empty empty 17 7 0 10 -86853 -260097
-1;
#X obj 131 162 bng 15 250 50 0 empty empty empty 17 7 0 10 -204786
-1 -1;
#X obj 151 132 bng 15 250 50 0 empty empty empty 17 7 0 10 -204786
-1 -1;
#X obj 111 132 bng 15 250 50 0 empty empty empty 17 7 0 10 -204786
-1 -1;
#X obj 132 240 bng 15 250 50 0 empty empty empty 17 7 0 10 -261682
-1 -1;
#X obj 152 210 bng 15 250 50 0 empty empty empty 17 7 0 10 -261682
-1 -1;
#X obj 112 210 bng 15 250 50 0 empty empty empty 17 7 0 10 -261682
-1 -1;
#X msg 426 60 1 0 1 0 1 \$1;
#X msg 316 170 1 0 1 \$1 1 0;
#X msg 546 169 1 \$1 1 0 1 0;
#X obj 426 41 prepend \$2;
#X obj 316 151 prepend \$2;
#X obj 546 151 prepend \$2;
#X obj 426 91 prepend \$2;
#X msg 426 110 1 \$1 1 \$1 1 \$1;
#X obj 426 161 prepend \$2;
#X msg 426 180 1 \$1 1 \$1 1 0;
#X obj 546 81 prepend \$2;
#X obj 316 91 prepend \$2;
#X msg 546 100 1 \$1 1 0 1 \$1;
#X msg 316 110 1 0 1 \$1 1 \$1;
#X obj 532 271 prepend \$2;
#X obj 422 381 prepend \$2;
#X obj 652 381 prepend \$2;
#X obj 532 321 prepend \$2;
#X obj 532 391 prepend \$2;
#X obj 652 311 prepend \$2;
#X obj 422 321 prepend \$2;
#X msg 532 290 0 0 0 0 0 \$1;
#X msg 422 340 0 0 0 \$1 0 \$1;
#X msg 532 340 0 \$1 0 \$1 0 \$1;
#X msg 652 330 0 \$1 0 0 0 \$1;
#X msg 652 399 0 \$1 0 0 0 0;
#X msg 532 410 0 \$1 0 \$1 0 0;
#X msg 422 400 0 0 0 \$1 0 0;
#X obj 253 555 s to-motor;
#X obj 261 525 prepend /SHIELD-\$1;
#X obj 253 491 prepend mouvement;
#X connect 2 0 19 0;
#X connect 3 0 20 0;
#X connect 4 0 21 0;
#X connect 5 0 30 0;
#X connect 6 0 31 0;
#X connect 7 0 32 0;
#X connect 8 0 22 0;
#X connect 9 0 33 0;
#X connect 10 0 24 0;
#X connect 11 0 26 0;
#X connect 12 0 27 0;
#X connect 13 0 34 0;
#X connect 14 0 35 0;
#X connect 15 0 36 0;
#X connect 16 0 46 0;
#X connect 17 0 46 0;
#X connect 18 0 46 0;
#X connect 19 0 16 0;
#X connect 20 0 17 0;
#X connect 21 0 18 0;
#X connect 22 0 23 0;
#X connect 23 0 46 0;
#X connect 24 0 25 0;
#X connect 25 0 46 0;
#X connect 26 0 28 0;
#X connect 27 0 29 0;
#X connect 28 0 46 0;
#X connect 29 0 46 0;
#X connect 30 0 37 0;
#X connect 31 0 43 0;
#X connect 32 0 41 0;
#X connect 33 0 39 0;
#X connect 34 0 42 0;
#X connect 35 0 40 0;
#X connect 36 0 38 0;
#X connect 37 0 46 0;
#X connect 38 0 46 0;
#X connect 39 0 46 0;
#X connect 40 0 46 0;
#X connect 41 0 46 0;
#X connect 42 0 46 0;
#X connect 43 0 46 0;
#X connect 45 0 44 0;
#X connect 46 0 45 0;
#X coords 0 -1 1 1 80 160 2 100 100;
