#N canvas 403 115 963 535 12;
#X obj 100 100 cnv 15 160 80 empty cnv-mover_param_device-shield-\$1
empty 20 12 0 14 -24198 -66577 0;
#X obj 107 282 pack s f f f f f f;
#X msg 108 246 mouvement;
#X obj 138 162 bng 15 250 50 0 empty send-\$1 send-\$1 17 7 0 10 -4034
-258113 -1;
#X obj 101 101 mover_param_device X \$1;
#X obj 101 121 mover_param_device Y \$1;
#X obj 101 141 mover_param_device Z \$1;
#X obj 106 306 prepend /SHIELD-\$1;
#X obj 106 330 outlet;
#X obj 200 386 s to-motor;
#X obj 281 357 print mover_param_device-shield.pd-\$1;
#X msg 504 138 X \, Y \, Z;
#X msg 504 201 \; zero-\$1-\$2 1;
#X msg 360 118 X \, Y \, Z;
#X obj 360 92 bng 15 250 50 0 empty empty set-XYZ-\$1 17 7 0 10 -204786
-1 -1;
#X msg 360 180 \; set-\$1-\$2 1;
#X obj 504 112 bng 15 250 50 0 empty empty zero-XYZ-\$1 17 7 0 10 -99865
-1 -1;
#X obj 566 50 select 0 127;
#X obj 546 22 r setORzero-\$1;
#X obj 504 162 list append \$1;
#X obj 360 141 list append \$1;
#X obj 436 22 r setORzero-M;
#X obj 559 291 select 0 127;
#X msg 607 392 \; send-\$1 1;
#X obj 607 366 prepend \$1;
#X obj 198 162 bng 15 250 50 0 empty empty STOP 17 7 0 10 -258113 -262144
-1;
#X obj 559 267 r sendORstop-\$1;
#X obj 549 247 r sendORstop-M;
#X obj 728 323 spigot;
#X obj 793 330 tgl 15 1 empty empty empty 17 7 0 10 -262144 -1 -1 1
1;
#X obj 728 344 t b a b;
#X obj 728 366 delay 100;
#X obj 818 322 spigot;
#X obj 883 329 tgl 15 1 empty empty empty 17 7 0 10 -262144 -1 -1 1
1;
#X obj 818 343 t b a b;
#X obj 818 365 delay 100;
#X obj 692 62 spigot;
#X obj 757 69 tgl 15 1 empty empty empty 17 7 0 10 -262144 -1 -1 1
1;
#X obj 692 83 t b a b;
#X obj 692 105 delay 100;
#X obj 806 61 spigot;
#X obj 800 86 t b a b;
#X obj 795 123 delay 100;
#X obj 867 69 tgl 15 1 empty empty empty 17 7 0 10 -262144 -1 -1 1
1;
#X msg 218 214 0;
#X obj 264 309 pack s f f f f f f;
#X msg 265 273 mouvement;
#X obj 375 265 t b f f f;
#X connect 1 0 7 0;
#X connect 2 0 1 0;
#X connect 3 0 2 0;
#X connect 4 0 1 1;
#X connect 4 0 45 1;
#X connect 4 1 1 2;
#X connect 5 0 1 3;
#X connect 5 0 45 3;
#X connect 5 1 1 4;
#X connect 6 0 1 5;
#X connect 6 0 45 5;
#X connect 6 1 1 6;
#X connect 7 0 8 0;
#X connect 7 0 9 0;
#X connect 7 0 10 0;
#X connect 11 0 19 0;
#X connect 13 0 20 0;
#X connect 14 0 13 0;
#X connect 16 0 11 0;
#X connect 17 0 36 0;
#X connect 17 1 40 0;
#X connect 18 0 17 0;
#X connect 19 0 12 0;
#X connect 20 0 15 0;
#X connect 21 0 17 0;
#X connect 22 0 28 0;
#X connect 22 1 32 0;
#X connect 24 0 23 0;
#X connect 25 0 44 0;
#X connect 26 0 22 0;
#X connect 27 0 22 0;
#X connect 28 0 30 0;
#X connect 29 0 28 1;
#X connect 30 0 31 0;
#X connect 30 1 25 0;
#X connect 30 2 29 0;
#X connect 31 0 29 0;
#X connect 32 0 34 0;
#X connect 33 0 32 1;
#X connect 34 0 35 0;
#X connect 34 1 24 0;
#X connect 34 2 33 0;
#X connect 35 0 33 0;
#X connect 36 0 38 0;
#X connect 37 0 36 1;
#X connect 38 0 39 0;
#X connect 38 1 16 0;
#X connect 38 2 37 0;
#X connect 39 0 37 0;
#X connect 40 0 41 0;
#X connect 41 0 42 0;
#X connect 41 1 14 0;
#X connect 41 2 43 0;
#X connect 42 0 43 0;
#X connect 43 0 40 1;
#X connect 44 0 47 0;
#X connect 45 0 7 0;
#X connect 46 0 45 0;
#X connect 47 0 46 0;
#X connect 47 1 45 2;
#X connect 47 2 45 4;
#X connect 47 3 45 6;
#X coords 0 -1 1 1 160 80 2 100 100;
