#N canvas 76 183 1920 1004 10;
#X obj 30 244 MIDI/MIDI 1;
#X msg 429 417 \; MIDI_CONNECT-1 20 128 \;;
#X obj 513 559 MAPPERBCF 1 2 3 4 5 6 7 8;
#X obj 44 560 MAPPERBCF 65 66 67 68 69 70 71 72;
#X obj 1094 423 MAPPERBCF 73 74 75 76 77 78 79 80;
#X obj 1094 540 MAPPERBCF 81 82 83 84 85 86 87 88;
#X obj 202 808 MAPPERBCF4 89 90 91 92;
#X obj 22 32 OSC/OSCsender 127.0.0.1 5050 topimotot;
#X msg 102 13 connect 192.168.10.101 5000;
#X obj 49 734 prepend /selectSHIELD;
#X obj 51 671 t b f;
#X obj 91 671 t b f;
#X obj 131 671 t b f;
#X obj 171 671 t b f;
#X obj 211 671 t b f;
#X obj 51 706 pack f f f f f;
#X obj 51 612 route 127;
#X obj 51 635 i 1;
#X obj 121 612 route 127;
#X obj 121 635 i 1;
#X obj 191 612 route 127;
#X obj 191 635 i 1;
#X obj 251 612 route 127;
#X obj 251 635 i 1;
#X obj 321 612 route 127;
#X obj 321 635 i 1;
#X obj 516 777 / 127;
#X obj 516 800 int;
#X obj 516 823 * 10;
#X msg 1362 112 /zero \;;
#X obj 1362 85 prepend add;
#X msg 1316 96 set;
#X floatatom 516 846 5 0 0 0 - - -;
#X obj 556 777 / 127;
#X obj 556 800 int;
#X obj 556 823 * 10;
#X floatatom 556 846 5 0 0 0 - - -;
#X obj 596 777 / 127;
#X obj 596 800 int;
#X obj 596 823 * 10;
#X floatatom 596 846 5 0 0 0 - - -;
#X floatatom 813 499 5 0 0 1 master_speed - -;
#X floatatom 829 526 5 0 0 1 master_acceleration - -;
#X obj 472 940 pack s f f f;
#X obj 493 703 symbol /vitesse;
#X obj 493 681 bng 15 250 50 0 empty empty empty 17 7 0 10 -262144
-1 -1;
#X obj 666 777 / 127;
#X obj 666 800 int;
#X obj 666 823 * 10;
#X obj 666 754 * 200;
#X floatatom 666 846 5 0 0 0 - - -;
#X obj 706 777 / 127;
#X obj 706 800 int;
#X obj 706 823 * 10;
#X obj 706 754 * 200;
#X floatatom 706 846 5 0 0 0 - - -;
#X obj 746 777 / 127;
#X obj 746 800 int;
#X obj 746 823 * 10;
#X obj 746 754 * 200;
#X floatatom 746 846 5 0 0 0 - - -;
#X obj 622 940 pack s f f f;
#X obj 643 681 bng 15 250 50 0 empty empty empty 17 7 0 10 -262144
-1 -1;
#X obj 643 703 symbol /acceleration;
#X obj 443 499 MAPPERBCF 33 34 35 36 37 38 39 40;
#X obj 183 1007 list trim;
#X obj 1074 957 pack s f f f;
#X obj 1074 765 bng 15 250 50 0 empty empty empty 17 7 0 10 -262144
-1 -1;
#X obj 1097 651 / 127;
#X obj 1147 651 / 127;
#X obj 1197 651 / 127;
#X obj 1277 651 / 127;
#X obj 1327 651 / 127;
#X obj 1377 651 / 127;
#X obj 1174 777 +;
#X obj 1174 746 t b f;
#X floatatom 1174 824 6 0 0 0 - - -;
#X obj 1174 800 int;
#X obj 1277 628 * 2046;
#X obj 1277 677 - 1023;
#X obj 1097 676 - 31744;
#X obj 1097 628 * 63488;
#X obj 1223 777 +;
#X obj 1223 746 t b f;
#X floatatom 1223 824 6 0 0 0 - - -;
#X obj 1223 800 int;
#X obj 1263 777 +;
#X obj 1263 746 t b f;
#X floatatom 1263 824 6 0 0 0 - - -;
#X obj 1263 800 int;
#X obj 1147 628 * 63488;
#X obj 1197 628 * 63488;
#X obj 1147 677 - 31744;
#X obj 1197 677 - 31744;
#X obj 1327 677 - 1023;
#X obj 1377 677 - 1023;
#X obj 1327 628 * 2046;
#X obj 1377 628 * 2046;
#X obj 1074 787 symbol /moveto;
#X floatatom 1386 579 5 0 0 1 master_fine - -;
#X floatatom 1386 600 5 0 0 1 position_coarse - -;
#X msg 1244 485 79;
#X msg 1094 485 63;
#X msg 1124 485 63;
#X msg 1154 485 63;
#X msg 1274 485 79;
#X msg 1304 485 79;
#X msg 1194 485 63;
#X msg 1344 485 79;
#X obj 1074 739 route 127;
#X msg 275 931 /run 1;
#X obj 275 883 route 127;
#X obj 275 905 bng 15 250 50 0 empty empty empty 17 7 0 10 -262144
-1 -1;
#X obj 33 186 bng 15 250 50 0 empty empty ZERO 17 7 0 10 -260097 -1
-1;
#X msg 33 212 /zero;
#N canvas 0 50 1394 958 horloge 0;
#X msg 602 631 /run 1;
#X msg 255 634 /moveto 0 -7000 4000;
#X msg 408 634 /moveto 0 4000 -7000;
#X obj 216 327 t b b b;
#X obj 216 103 bng 15 250 50 0 empty empty run 17 7 0 10 -257985 -1
-1;
#X obj 602 453 del 400;
#X obj 370 331 t b b b;
#X msg 435 793 /selectSHIELD 0 0 0 1 0;
#X obj 602 480 spigot;
#X obj 685 467 tgl 15 0 empty empty empty 17 7 0 10 -262144 -1 -1 0
1;
#X msg 685 298 1;
#X msg 479 222 /acceleration 900 900 900;
#X msg 289 222 /vitesse 1200 1200 1200;
#X obj 216 281 t b b;
#X obj 216 123 t b b b b;
#X obj 216 480 spigot;
#X obj 370 480 spigot;
#X obj 256 103 bng 15 250 50 0 empty empty stop 17 7 0 10 -258113 -1
-1;
#X msg 715 298 0;
#X obj 216 519 del 11000;
#X obj 370 517 del 11000;
#X obj 408 831 s to_pimotor;
#X obj 408 752 t a b;
#X obj 478 188 del 10;
#X obj 289 193 del 100;
#X obj 216 193 del 200;
#X connect 0 0 22 0;
#X connect 1 0 22 0;
#X connect 2 0 22 0;
#X connect 3 0 15 0;
#X connect 3 1 5 0;
#X connect 3 2 1 0;
#X connect 4 0 14 0;
#X connect 5 0 8 0;
#X connect 6 0 16 0;
#X connect 6 1 5 0;
#X connect 6 2 2 0;
#X connect 7 0 21 0;
#X connect 8 0 0 0;
#X connect 9 0 8 1;
#X connect 9 0 16 1;
#X connect 9 0 15 1;
#X connect 10 0 9 0;
#X connect 11 0 22 0;
#X connect 12 0 22 0;
#X connect 13 0 3 0;
#X connect 13 1 10 0;
#X connect 14 0 25 0;
#X connect 14 1 24 0;
#X connect 14 2 23 0;
#X connect 15 0 19 0;
#X connect 16 0 20 0;
#X connect 17 0 18 0;
#X connect 18 0 9 0;
#X connect 19 0 6 0;
#X connect 20 0 3 0;
#X connect 22 0 21 0;
#X connect 22 1 7 0;
#X connect 23 0 11 0;
#X connect 24 0 12 0;
#X connect 25 0 13 0;
#X coords 0 -1 1 1 200 20 1 100 100;
#X restore 1040 114 pd horloge;
#X obj 22 13 r to_pimotor;
#N canvas 0 50 1394 958 mise1 0;
#X msg 166 382 /run 1;
#X obj 216 103 bng 15 250 50 0 empty empty run 17 7 0 10 -258113 -1
-1;
#X msg 395 296 /acceleration 900 900 900;
#X msg 320 329 /vitesse 1200 1200 1200;
#X obj 633 502 s to_pimotor;
#X obj 633 423 t a b;
#X obj 395 263 del 10;
#X msg 223 358 /moveto 32767 32767 32767;
#X msg 515 273 /zero;
#X obj 217 162 t b b b b b;
#X obj 336 263 del 200;
#X obj 263 263 del 400;
#X obj 173 263 del 600;
#X msg 660 464 /selectSHIELD 1 1 1 0 0;
#X connect 0 0 5 0;
#X connect 1 0 9 0;
#X connect 2 0 5 0;
#X connect 3 0 5 0;
#X connect 5 0 4 0;
#X connect 5 1 13 0;
#X connect 6 0 2 0;
#X connect 7 0 5 0;
#X connect 8 0 5 0;
#X connect 9 0 12 0;
#X connect 9 1 11 0;
#X connect 9 2 10 0;
#X connect 9 3 6 0;
#X connect 9 4 8 0;
#X connect 10 0 3 0;
#X connect 11 0 7 0;
#X connect 12 0 0 0;
#X connect 13 0 4 0;
#X coords 0 -1 1 1 200 20 1 100 100;
#X restore 1040 66 pd mise1;
#N canvas 10 116 1394 958 mise2 0;
#X msg 166 382 /run 1;
#X obj 216 103 bng 15 250 50 0 empty empty run 17 7 0 10 -258113 -1
-1;
#X msg 395 296 /acceleration 900 900 900;
#X msg 320 329 /vitesse 1200 1200 1200;
#X obj 457 494 s to_pimotor;
#X obj 457 415 t a b;
#X obj 395 263 del 10;
#X msg 223 358 /moveto 32767 32767 32767;
#X msg 515 273 /zero;
#X obj 217 162 t b b b b b;
#X obj 794 422 t a b;
#X msg 484 456 /selectSHIELD 1 1 1 0 0;
#X obj 336 263 del 200;
#X obj 263 263 del 400;
#X obj 174 263 del 600;
#X msg 821 463 /selectSHIELD 1 1 1 0 0;
#X connect 0 0 5 0;
#X connect 1 0 9 0;
#X connect 2 0 5 0;
#X connect 3 0 5 0;
#X connect 5 0 4 0;
#X connect 5 1 11 0;
#X connect 6 0 2 0;
#X connect 7 0 5 0;
#X connect 8 0 10 0;
#X connect 9 0 14 0;
#X connect 9 1 13 0;
#X connect 9 2 12 0;
#X connect 9 3 6 0;
#X connect 9 4 8 0;
#X connect 10 0 4 0;
#X connect 10 1 15 0;
#X connect 11 0 4 0;
#X connect 12 0 3 0;
#X connect 13 0 7 0;
#X connect 14 0 0 0;
#X connect 15 0 4 0;
#X coords 0 -1 1 1 200 20 1 100 100;
#X restore 1040 86 pd mise2;
#N canvas 2 88 1394 958 plafond 0;
#X msg 166 382 /run 1;
#X obj 216 103 bng 15 250 50 0 empty empty run 17 7 0 10 -257985 -1
-1;
#X obj 457 494 s to_pimotor;
#X obj 457 415 t a b;
#X obj 395 263 del 10;
#X msg 223 358 /moveto 32767 32767 32767;
#X obj 217 162 t b b b b b;
#X msg 484 456 /selectSHIELD 1 1 1 0 0;
#X obj 336 263 del 200;
#X obj 263 263 del 400;
#X obj 173 263 del 600;
#X msg 395 296 /acceleration 1000 1000 1000;
#X obj 227 53 r plafond;
#X msg 350 328 /vitesse 1600 1600 1600;
#X connect 0 0 3 0;
#X connect 1 0 6 0;
#X connect 3 0 2 0;
#X connect 3 1 7 0;
#X connect 4 0 11 0;
#X connect 5 0 3 0;
#X connect 6 0 10 0;
#X connect 6 1 9 0;
#X connect 6 2 8 0;
#X connect 6 3 4 0;
#X connect 7 0 2 0;
#X connect 8 0 13 0;
#X connect 9 0 5 0;
#X connect 10 0 0 0;
#X connect 11 0 3 0;
#X connect 12 0 1 0;
#X connect 13 0 3 0;
#X coords 0 -1 1 1 200 20 1 100 100;
#X restore 819 70 pd plafond;
#N canvas 69 103 1394 958 plateaucanard 0;
#X msg 166 382 /run 1;
#X obj 216 103 bng 15 250 50 0 empty empty run 17 7 0 10 -257985 -1
-1;
#X obj 457 494 s to_pimotor;
#X obj 457 415 t a b;
#X obj 395 263 del 10;
#X obj 217 162 t b b b b b;
#X msg 484 456 /selectSHIELD 1 1 1 0 0;
#X obj 335 263 del 200;
#X obj 263 263 del 400;
#X obj 173 263 del 600;
#X msg 225 358 /moveto 4500 -1000 -1000;
#X msg 395 296 /acceleration 500 500 500;
#X msg 320 329 /vitesse 1200 1600 1600;
#X connect 0 0 3 0;
#X connect 1 0 5 0;
#X connect 3 0 2 0;
#X connect 3 1 6 0;
#X connect 4 0 11 0;
#X connect 5 0 9 0;
#X connect 5 1 8 0;
#X connect 5 2 7 0;
#X connect 5 3 4 0;
#X connect 6 0 2 0;
#X connect 7 0 12 0;
#X connect 8 0 10 0;
#X connect 9 0 0 0;
#X connect 10 0 3 0;
#X connect 11 0 3 0;
#X connect 12 0 3 0;
#X coords 0 -1 1 1 200 20 1 100 100;
#X restore 1040 158 pd plateaucanard;
#X obj 379 388 ggee/shell;
#X obj 516 754 * 200;
#X obj 556 754 * 200;
#X obj 596 754 * 200;
#N canvas 180 83 1394 958 turnare 0;
#X obj 216 103 bng 15 250 50 0 empty empty run 17 7 0 10 -257985 -1
-1;
#X obj 632 934 s to_pimotor;
#X msg 985 767 /selectSHIELD 0 0 1 0 0;
#X obj 923 448 pipe 10;
#X obj 923 471 cycle 3;
#X obj 646 411 cycle 3;
#X obj 158 395 cycle 3;
#X msg 956 837 /run 1;
#X msg 914 349 symbol foo;
#X obj 955 794 del 200;
#X obj 925 708 t b a b b;
#X msg 647 377 symbol foo;
#X msg 672 817 /run 1;
#X obj 630 770 del 200;
#X obj 641 688 t b a b b;
#X msg 701 747 /selectSHIELD 0 1 0 0 0;
#X msg 201 782 /run 1;
#X obj 159 735 del 200;
#X obj 170 653 t b a b b;
#X msg 157 336 symbol foo;
#X msg 230 712 /selectSHIELD 1 0 0 0 0;
#X obj 337 387 tgl 15 0 empty empty empty 17 7 0 10 -262144 -1 -1 0
1;
#X msg 337 218 1;
#X msg 367 218 0;
#X obj 258 103 bng 15 250 50 0 empty empty stop 17 7 0 10 -258113 -1
-1;
#X obj 416 158 t b b;
#X obj 436 428 spigot;
#X obj 252 676 del 8000;
#X obj 294 428 spigot;
#X obj 801 463 spigot;
#X msg 948 624 /moveto -14000 1000 -7998;
#X msg 921 661 /moveto -18000 -7998 -7998;
#X msg 980 590 /moveto -14000 -7998 1000;
#X msg 605 618 /moveto -14000 1000 -7998;
#X obj 723 711 del 5000;
#X obj 1007 731 del 5000;
#X msg 205 581 /moveto -14000 -7998 1000;
#X msg 236 490 /moveto -14000 1000 -7998;
#X msg 210 527 /moveto -18000 -7998 -7998;
#X msg 700 546 /moveto -18000 -7998 -7998;
#X msg 655 577 /moveto -14000 -7998 1000;
#X obj 208 44 r turnnmare;
#X obj 298 44 r stopturnnmare;
#X connect 0 0 25 0;
#X connect 2 0 1 0;
#X connect 3 0 4 0;
#X connect 4 0 31 0;
#X connect 4 1 30 0;
#X connect 4 2 32 0;
#X connect 5 0 33 0;
#X connect 5 1 40 0;
#X connect 5 2 39 0;
#X connect 6 0 36 0;
#X connect 6 1 38 0;
#X connect 6 2 37 0;
#X connect 7 0 1 0;
#X connect 8 0 3 0;
#X connect 9 0 7 0;
#X connect 10 0 9 0;
#X connect 10 1 1 0;
#X connect 10 2 2 0;
#X connect 10 3 35 0;
#X connect 11 0 5 0;
#X connect 12 0 1 0;
#X connect 13 0 12 0;
#X connect 14 0 13 0;
#X connect 14 1 1 0;
#X connect 14 2 15 0;
#X connect 14 3 34 0;
#X connect 15 0 1 0;
#X connect 16 0 1 0;
#X connect 17 0 16 0;
#X connect 18 0 17 0;
#X connect 18 1 1 0;
#X connect 18 2 20 0;
#X connect 18 3 27 0;
#X connect 19 0 6 0;
#X connect 20 0 1 0;
#X connect 21 0 26 1;
#X connect 21 0 28 1;
#X connect 21 0 29 1;
#X connect 22 0 21 0;
#X connect 23 0 21 0;
#X connect 24 0 23 0;
#X connect 25 0 8 0;
#X connect 25 1 22 0;
#X connect 26 0 8 0;
#X connect 27 0 26 0;
#X connect 28 0 19 0;
#X connect 29 0 11 0;
#X connect 30 0 10 0;
#X connect 31 0 10 0;
#X connect 32 0 10 0;
#X connect 33 0 14 0;
#X connect 34 0 28 0;
#X connect 35 0 29 0;
#X connect 36 0 18 0;
#X connect 37 0 18 0;
#X connect 38 0 18 0;
#X connect 39 0 14 0;
#X connect 40 0 14 0;
#X connect 41 0 0 0;
#X connect 42 0 24 0;
#X coords 0 -1 1 1 200 20 1 100 100;
#X restore 545 40 pd turnare;
#X obj 220 1058 s to_pimotor;
#N canvas 284 244 450 300 selected 0;
#X obj 85 35 r to_pimotor;
#X obj 85 58 route /selectSHIELD;
#X obj 85 81 unpack f f f f f;
#X obj 85 124 * 127;
#X obj 85 147 outlet;
#X obj 135 124 * 127;
#X obj 135 147 outlet;
#X obj 185 124 * 127;
#X obj 185 147 outlet;
#X obj 235 124 * 127;
#X obj 235 147 outlet;
#X obj 285 124 * 127;
#X obj 285 147 outlet;
#X connect 0 0 1 0;
#X connect 1 0 2 0;
#X connect 2 0 3 0;
#X connect 2 1 5 0;
#X connect 2 2 7 0;
#X connect 2 3 9 0;
#X connect 2 4 11 0;
#X connect 3 0 4 0;
#X connect 5 0 6 0;
#X connect 7 0 8 0;
#X connect 9 0 10 0;
#X connect 11 0 12 0;
#X restore 44 525 pd selected;
#N canvas -67 200 1272 595 etat 0;
#X obj 644 8 r to_pimotor;
#X obj 644 31 route /selectSHIELD /vitesse /acceleration /moveto;
#X obj 654 78 unpack f f f f f;
#X obj 708 126 spigot;
#X obj 708 149 unpack f f f;
#X floatatom 104 121 5 0 0 0 - - -;
#X obj 741 107 tgl 15 0 empty empty empty 17 7 0 10 -262144 -1 -1 0
1;
#X floatatom 148 121 5 0 0 0 - - -;
#X floatatom 192 121 5 0 0 0 - - -;
#X obj 838 126 spigot;
#X obj 838 149 unpack f f f;
#X floatatom 244 121 5 0 0 0 - - -;
#X obj 871 107 tgl 15 0 empty empty empty 17 7 0 10 -262144 -1 -1 0
1;
#X floatatom 288 121 5 0 0 0 - - -;
#X floatatom 332 121 5 0 0 0 - - -;
#X obj 968 126 spigot;
#X obj 968 149 unpack f f f;
#X floatatom 384 121 5 0 0 0 - - -;
#X obj 1001 107 tgl 15 0 empty empty empty 17 7 0 10 -262144 -1 -1
0 1;
#X floatatom 428 121 5 0 0 0 - - -;
#X floatatom 472 121 5 0 0 1 ___VITESSE - -;
#X obj 654 268 unpack f f f f f;
#X obj 708 316 spigot;
#X obj 708 339 unpack f f f;
#X floatatom 104 138 5 0 0 0 - - -;
#X obj 741 297 tgl 15 0 empty empty empty 17 7 0 10 -262144 -1 -1 0
1;
#X floatatom 148 138 5 0 0 0 - - -;
#X floatatom 192 138 5 0 0 0 - - -;
#X obj 838 316 spigot;
#X obj 838 339 unpack f f f;
#X floatatom 244 138 5 0 0 0 - - -;
#X obj 871 297 tgl 15 0 empty empty empty 17 7 0 10 -262144 -1 -1 0
1;
#X floatatom 288 138 5 0 0 0 - - -;
#X floatatom 332 138 5 0 0 0 - - -;
#X obj 968 316 spigot;
#X obj 968 339 unpack f f f;
#X floatatom 384 138 5 0 0 0 - - -;
#X obj 1001 297 tgl 15 0 empty empty empty 17 7 0 10 -262144 -1 -1
0 1;
#X floatatom 428 138 5 0 0 0 - - -;
#X floatatom 472 138 5 0 0 1 ___ACCELERATION - -;
#X obj 654 438 unpack f f f f f;
#X obj 708 486 spigot;
#X obj 708 509 unpack f f f;
#X floatatom 104 155 7 0 0 0 - - -;
#X obj 741 467 tgl 15 0 empty empty empty 17 7 0 10 -262144 -1 -1 0
1;
#X floatatom 148 155 7 0 0 0 - - -;
#X floatatom 192 155 7 0 0 0 - - -;
#X obj 838 486 spigot;
#X obj 871 467 tgl 15 0 empty empty empty 17 7 0 10 -262144 -1 -1 0
1;
#X obj 968 486 spigot;
#X obj 1001 467 tgl 15 0 empty empty empty 17 7 0 10 -262144 -1 -1
0 1;
#X obj 848 509 unpack f f f;
#X floatatom 244 155 7 0 0 0 - - -;
#X floatatom 288 155 7 0 0 0 - - -;
#X floatatom 332 155 7 0 0 0 - - -;
#X obj 988 509 unpack f f f;
#X floatatom 384 155 7 0 0 0 - - -;
#X floatatom 428 155 7 0 0 0 - - -;
#X floatatom 472 155 7 0 0 1 _POSITION - -;
#X msg 73 525 /moveto 25000 27000 27000;
#X obj 73 502 prepend set /moveto;
#X msg 253 525 /moveto -5199 -28043 -28043;
#X obj 253 502 prepend set /moveto;
#X msg 433 525 /moveto 19641 23640 23640;
#X obj 433 502 prepend set /moveto;
#X msg 73 405 /acceleration 900 900 900;
#X msg 253 405 /acceleration 900 900 900;
#X msg 433 405 /acceleration 900 900 900;
#X obj 73 383 prepend set /acceleration;
#X obj 253 382 prepend set /acceleration;
#X obj 433 382 prepend set /acceleration;
#X msg 73 285 /vitesse 1200 1200 1200;
#X msg 233 285 /vitesse 1200 1200 1200;
#X msg 413 285 /vitesse 1200 1200 1200;
#X obj 73 263 prepend set /vitesse;
#X obj 233 262 prepend set /vitesse;
#X obj 413 262 prepend set /vitesse;
#X connect 0 0 1 0;
#X connect 1 0 2 0;
#X connect 1 0 21 0;
#X connect 1 0 40 0;
#X connect 1 1 3 0;
#X connect 1 1 9 0;
#X connect 1 1 15 0;
#X connect 1 2 22 0;
#X connect 1 2 34 0;
#X connect 1 2 28 0;
#X connect 1 3 41 0;
#X connect 1 3 49 0;
#X connect 1 3 47 0;
#X connect 2 0 6 0;
#X connect 2 1 12 0;
#X connect 2 2 18 0;
#X connect 3 0 4 0;
#X connect 3 0 74 0;
#X connect 4 0 5 0;
#X connect 4 1 7 0;
#X connect 4 2 8 0;
#X connect 6 0 3 1;
#X connect 9 0 10 0;
#X connect 9 0 75 0;
#X connect 10 0 11 0;
#X connect 10 1 13 0;
#X connect 10 2 14 0;
#X connect 12 0 9 1;
#X connect 15 0 16 0;
#X connect 15 0 76 0;
#X connect 16 0 17 0;
#X connect 16 1 19 0;
#X connect 16 2 20 0;
#X connect 18 0 15 1;
#X connect 21 0 25 0;
#X connect 21 1 31 0;
#X connect 21 2 37 0;
#X connect 22 0 23 0;
#X connect 22 0 68 0;
#X connect 23 0 24 0;
#X connect 23 1 26 0;
#X connect 23 2 27 0;
#X connect 25 0 22 1;
#X connect 28 0 29 0;
#X connect 28 0 69 0;
#X connect 29 0 30 0;
#X connect 29 1 32 0;
#X connect 29 2 33 0;
#X connect 31 0 28 1;
#X connect 34 0 35 0;
#X connect 34 0 70 0;
#X connect 35 0 36 0;
#X connect 35 1 38 0;
#X connect 35 2 39 0;
#X connect 37 0 34 1;
#X connect 40 0 44 0;
#X connect 40 1 48 0;
#X connect 40 2 50 0;
#X connect 41 0 42 0;
#X connect 41 0 60 0;
#X connect 42 0 43 0;
#X connect 42 1 45 0;
#X connect 42 2 46 0;
#X connect 44 0 41 1;
#X connect 47 0 51 0;
#X connect 47 0 62 0;
#X connect 48 0 47 1;
#X connect 49 0 55 0;
#X connect 49 0 64 0;
#X connect 50 0 49 1;
#X connect 51 0 52 0;
#X connect 51 1 53 0;
#X connect 51 2 54 0;
#X connect 55 0 56 0;
#X connect 55 1 57 0;
#X connect 55 2 58 0;
#X connect 60 0 59 0;
#X connect 62 0 61 0;
#X connect 64 0 63 0;
#X connect 68 0 65 0;
#X connect 69 0 66 0;
#X connect 70 0 67 0;
#X connect 74 0 71 0;
#X connect 75 0 72 0;
#X connect 76 0 73 0;
#X coords 0 -1 1 1 500 80 1 100 100;
#X restore 27 96 pd etat;
#N canvas 357 455 600 300 BCFinput 0;
#X floatatom 105 121 5 0 0 0 - - -;
#X floatatom 149 121 5 0 0 0 - - -;
#X floatatom 193 121 5 0 0 1 ___VITESSE - -;
#X floatatom 105 138 5 0 0 0 - - -;
#X floatatom 149 138 5 0 0 0 - - -;
#X floatatom 193 138 5 0 0 1 ___ACCELERATION - -;
#X floatatom 105 155 7 0 0 0 - - -;
#X floatatom 149 155 7 0 0 0 - - -;
#X floatatom 193 155 7 0 0 1 _POSITION - -;
#X obj 342 40 r BCF-P1;
#X obj 422 40 r BCF-P2;
#X obj 502 40 r BCF-P3;
#X obj 342 70 r BCF-A1;
#X obj 422 70 r BCF-A2;
#X obj 502 70 r BCF-A3;
#X obj 344 112 r BCF-V1;
#X obj 423 111 r BCF-V2;
#X obj 503 111 r BCF-V3;
#X connect 9 0 6 0;
#X connect 10 0 7 0;
#X connect 11 0 8 0;
#X connect 12 0 3 0;
#X connect 13 0 4 0;
#X connect 14 0 5 0;
#X connect 15 0 0 0;
#X connect 16 0 1 0;
#X connect 17 0 2 0;
#X coords 0 -1 1 1 230 80 1 100 100;
#X restore 297 16 pd BCFinput;
#X obj 1174 869 send BCF-P1;
#X obj 1254 869 send BCF-P2;
#X obj 1334 869 send BCF-P3;
#X obj 642 877 s BCF-A1;
#X obj 701 877 s BCF-A2;
#X obj 762 877 s BCF-A3;
#X obj 578 885 s BCF-V3;
#X obj 518 885 s BCF-V2;
#X obj 459 886 s BCF-V1;
#X obj 1362 59 r to_pimotor;
#N canvas 479 80 1394 958 tuest 0;
#X obj 216 103 bng 15 250 50 0 empty empty run 17 7 0 10 -257985 -1
-1;
#X obj 632 934 s to_pimotor;
#X msg 985 767 /selectSHIELD 0 0 1 0 0;
#X msg 956 837 /run 1;
#X msg 904 323 symbol foo;
#X obj 955 689 t b a b b;
#X msg 573 323 symbol foo;
#X msg 630 805 /run 1;
#X obj 641 688 t b a b b;
#X msg 701 747 /selectSHIELD 0 1 0 0 0;
#X msg 205 825 /run 1;
#X obj 205 706 t b a b b;
#X msg 189 323 symbol foo;
#X msg 265 765 /selectSHIELD 1 0 0 0 0;
#X obj 947 195 tgl 15 0 empty empty empty 17 7 0 10 -262144 -1 -1 0
1;
#X msg 949 157 1;
#X msg 979 157 0;
#X obj 258 103 bng 15 250 50 0 empty empty stop 17 7 0 10 -258113 -1
-1;
#X obj 860 123 t b b;
#X obj 914 250 spigot;
#X obj 723 704 del 8000;
#X obj 1037 705 del 8000;
#X obj 287 722 del 8000;
#X msg 298 487 /moveto -5611 1386 7385;
#X msg 478 487 /moveto -5611 5885 5885;
#X msg 670 488 /moveto -5611 11384 1886;
#X msg 316 522 /moveto -5112 1386 11884;
#X msg 496 522 /moveto -8111 5885 5885;
#X msg 676 522 /moveto 886 11384 1886;
#X obj 190 382 cycle 2;
#X obj 573 357 cycle 2;
#X obj 904 357 cycle 2;
#X floatatom 1181 467 5 0 0 0 - - -;
#X obj 205 792 del 300;
#X obj 630 770 del 300;
#X obj 955 794 del 300;
#X msg 1181 444 2000;
#X connect 0 0 18 0;
#X connect 2 0 1 0;
#X connect 3 0 1 0;
#X connect 4 0 31 0;
#X connect 5 0 35 0;
#X connect 5 1 1 0;
#X connect 5 2 2 0;
#X connect 5 3 21 0;
#X connect 6 0 30 0;
#X connect 7 0 1 0;
#X connect 8 0 34 0;
#X connect 8 1 1 0;
#X connect 8 2 9 0;
#X connect 8 3 20 0;
#X connect 9 0 1 0;
#X connect 10 0 1 0;
#X connect 11 0 33 0;
#X connect 11 1 1 0;
#X connect 11 2 13 0;
#X connect 11 3 22 0;
#X connect 12 0 29 0;
#X connect 13 0 1 0;
#X connect 14 0 19 1;
#X connect 15 0 14 0;
#X connect 16 0 14 0;
#X connect 17 0 16 0;
#X connect 18 0 4 0;
#X connect 18 1 15 0;
#X connect 19 0 4 0;
#X connect 20 0 12 0;
#X connect 21 0 6 0;
#X connect 22 0 19 0;
#X connect 23 0 11 0;
#X connect 24 0 8 0;
#X connect 25 0 5 0;
#X connect 26 0 11 0;
#X connect 27 0 8 0;
#X connect 28 0 5 0;
#X connect 29 0 26 0;
#X connect 29 1 23 0;
#X connect 30 0 27 0;
#X connect 30 1 24 0;
#X connect 31 0 28 0;
#X connect 31 1 25 0;
#X connect 32 0 21 1;
#X connect 32 0 20 1;
#X connect 32 0 22 1;
#X connect 33 0 10 0;
#X connect 34 0 7 0;
#X connect 35 0 3 0;
#X connect 36 0 32 0;
#X coords 0 -1 1 1 200 20 1 100 100;
#X restore 899 24 pd tuest;
#X msg 449 345 aconnect 24:0 128:0;
#X msg 449 363 aconnect 128:1 24:0;
#N canvas 346 153 1394 958 misespectacle2 0;
#X msg 166 382 /run 1;
#X msg 395 296 /acceleration 900 900 900;
#X msg 320 329 /vitesse 1200 1200 1200;
#X obj 633 502 s to_pimotor;
#X obj 633 423 t a b;
#X obj 395 263 del 10;
#X obj 217 162 t b b b b b;
#X obj 336 263 del 200;
#X obj 263 263 del 400;
#X obj 173 263 del 600;
#X msg 660 464 /selectSHIELD 0 1 0 0 0;
#X obj 216 103 bng 15 250 50 0 empty empty run 17 7 0 10 -258113 -257985
-1;
#X obj 227 53 r misespectacle2;
#X msg 256 377 /moveto -5199 -28043 -28043;
#X connect 0 0 4 0;
#X connect 1 0 4 0;
#X connect 2 0 4 0;
#X connect 4 0 3 0;
#X connect 4 1 10 0;
#X connect 5 0 1 0;
#X connect 6 0 9 0;
#X connect 6 1 8 0;
#X connect 6 2 7 0;
#X connect 6 3 5 0;
#X connect 7 0 2 0;
#X connect 8 0 13 0;
#X connect 9 0 0 0;
#X connect 10 0 3 0;
#X connect 11 0 6 0;
#X connect 12 0 11 0;
#X connect 13 0 4 0;
#X coords 0 -1 1 1 200 20 1 100 100;
#X restore 560 122 pd misespectacle2;
#N canvas 0 50 1394 958 misespectacle3 0;
#X msg 166 382 /run 1;
#X obj 216 103 bng 15 250 50 0 empty empty run 17 7 0 10 -258113 -257985
-1;
#X msg 395 296 /acceleration 900 900 900;
#X msg 320 329 /vitesse 1200 1200 1200;
#X obj 633 502 s to_pimotor;
#X obj 629 422 t a b;
#X obj 395 263 del 10;
#X obj 217 162 t b b b b b;
#X obj 336 263 del 200;
#X obj 263 263 del 400;
#X obj 173 263 del 600;
#X msg 660 464 /selectSHIELD 0 0 1 0 0;
#X obj 219 53 r misespectacle3;
#X msg 265 363 /moveto 19641 23640 23640;
#X connect 0 0 5 0;
#X connect 1 0 7 0;
#X connect 2 0 5 0;
#X connect 3 0 5 0;
#X connect 5 0 4 0;
#X connect 5 1 11 0;
#X connect 6 0 2 0;
#X connect 7 0 10 0;
#X connect 7 1 9 0;
#X connect 7 2 8 0;
#X connect 7 3 6 0;
#X connect 8 0 3 0;
#X connect 9 0 13 0;
#X connect 10 0 0 0;
#X connect 11 0 4 0;
#X connect 12 0 1 0;
#X connect 13 0 5 0;
#X coords 0 -1 1 1 200 20 1 100 100;
#X restore 560 102 pd misespectacle3;
#N canvas 0 50 1394 958 mare2Etape1 0;
#X msg 166 382 /run 1;
#X obj 216 103 bng 15 250 50 0 empty mare2Etape1 run 17 7 0 10 -258113
-257985 -1;
#X msg 395 296 /acceleration 900 900 900;
#X obj 633 502 s to_pimotor;
#X obj 633 423 t a b;
#X obj 395 263 del 10;
#X obj 217 162 t b b b b b;
#X obj 336 263 del 200;
#X obj 263 263 del 400;
#X obj 173 263 del 600;
#X msg 660 464 /selectSHIELD 0 1 0 0 0;
#X msg 320 329 /vitesse 400 400 400;
#X msg 252 367 /moveto -999 -23543 -23204;
#X connect 0 0 4 0;
#X connect 1 0 6 0;
#X connect 2 0 4 0;
#X connect 4 0 3 0;
#X connect 4 1 10 0;
#X connect 5 0 2 0;
#X connect 6 0 9 0;
#X connect 6 1 8 0;
#X connect 6 2 7 0;
#X connect 6 3 5 0;
#X connect 7 0 11 0;
#X connect 8 0 12 0;
#X connect 9 0 0 0;
#X connect 10 0 3 0;
#X connect 11 0 4 0;
#X connect 12 0 4 0;
#X coords 0 -1 1 1 200 20 1 100 100;
#X restore 560 165 pd mare2Etape1;
#N canvas 0 50 1394 958 mare2Etape2 0;
#X msg 166 382 /run 1;
#X obj 216 103 bng 15 250 50 0 empty mare2Etape2 run 17 7 0 10 -258113
-257985 -1;
#X msg 395 296 /acceleration 900 900 900;
#X obj 633 502 s to_pimotor;
#X obj 633 423 t a b;
#X obj 395 263 del 10;
#X obj 217 162 t b b b b b;
#X obj 336 263 del 200;
#X obj 263 263 del 400;
#X obj 173 263 del 600;
#X msg 660 464 /selectSHIELD 0 1 0 0 0;
#X msg 240 376 /moveto -17996 -3499 -3999;
#X msg 320 329 /vitesse 400 400 400;
#X connect 0 0 4 0;
#X connect 1 0 6 0;
#X connect 2 0 4 0;
#X connect 4 0 3 0;
#X connect 4 1 10 0;
#X connect 5 0 2 0;
#X connect 6 0 9 0;
#X connect 6 1 8 0;
#X connect 6 2 7 0;
#X connect 6 3 5 0;
#X connect 7 0 12 0;
#X connect 8 0 11 0;
#X connect 9 0 0 0;
#X connect 10 0 3 0;
#X connect 11 0 4 0;
#X connect 12 0 4 0;
#X coords 0 -1 1 1 200 20 1 100 100;
#X restore 560 185 pd mare2Etape2;
#N canvas 0 50 1394 958 descenteCanard1 0;
#X msg 166 382 /run 1;
#X obj 216 103 bng 15 250 50 0 empty empty run 17 7 0 10 -258113 -257985
-1;
#X obj 633 502 s to_pimotor;
#X obj 633 423 t a b;
#X obj 395 263 del 10;
#X obj 217 162 t b b b b b;
#X obj 336 263 del 200;
#X obj 263 263 del 400;
#X obj 173 263 del 600;
#X msg 660 464 /selectSHIELD 1 0 0 0 0;
#X msg 238 479 /moveto -7225 -6000 -9271;
#X msg 238 424 /moveto -2000 -6000 -9271;
#X msg 240 376 /moveto -10000 -18000 -10000;
#X obj 211 57 r descenteCanard1;
#X msg 320 329 /vitesse 1000 1400 1400;
#X msg 395 296 /acceleration 200 200 200;
#X connect 0 0 3 0;
#X connect 1 0 5 0;
#X connect 3 0 2 0;
#X connect 3 1 9 0;
#X connect 4 0 15 0;
#X connect 5 0 8 0;
#X connect 5 1 7 0;
#X connect 5 2 6 0;
#X connect 5 3 4 0;
#X connect 6 0 14 0;
#X connect 7 0 12 0;
#X connect 8 0 0 0;
#X connect 9 0 2 0;
#X connect 10 0 3 0;
#X connect 11 0 3 0;
#X connect 12 0 3 0;
#X connect 13 0 1 0;
#X connect 14 0 3 0;
#X connect 15 0 3 0;
#X coords 0 -1 1 1 200 20 1 100 100;
#X restore 560 245 pd descenteCanard1;
#N canvas 0 50 1394 958 misespectacle1 0;
#X msg 166 382 /run 1;
#X obj 216 103 bng 15 250 50 0 empty empty run 17 7 0 10 -258113 -257985
-1;
#X msg 395 296 /acceleration 900 900 900;
#X msg 320 329 /vitesse 1200 1200 1200;
#X obj 633 502 s to_pimotor;
#X obj 629 422 t a b;
#X obj 395 263 del 10;
#X obj 217 162 t b b b b b;
#X obj 336 263 del 200;
#X obj 263 263 del 400;
#X obj 173 263 del 600;
#X obj 219 53 r misespectacle1;
#X msg 660 464 /selectSHIELD 1 0 0 0 0;
#X msg 265 363 /moveto 25000 27000 27000;
#X connect 0 0 5 0;
#X connect 1 0 7 0;
#X connect 2 0 5 0;
#X connect 3 0 5 0;
#X connect 5 0 4 0;
#X connect 5 1 12 0;
#X connect 6 0 2 0;
#X connect 7 0 10 0;
#X connect 7 1 9 0;
#X connect 7 2 8 0;
#X connect 7 3 6 0;
#X connect 8 0 3 0;
#X connect 9 0 13 0;
#X connect 10 0 0 0;
#X connect 11 0 1 0;
#X connect 12 0 4 0;
#X connect 13 0 5 0;
#X coords 0 -1 1 1 200 20 1 100 100;
#X restore 560 82 pd misespectacle1;
#N canvas 765 120 1394 958 descenteCanard3 0;
#X msg 166 382 /run 1;
#X obj 216 103 bng 15 250 50 0 empty empty run 17 7 0 10 -258113 -257985
-1;
#X obj 633 502 s to_pimotor;
#X obj 633 423 t a b;
#X obj 395 263 del 10;
#X obj 217 162 t b b b b b;
#X obj 336 263 del 200;
#X obj 263 263 del 400;
#X obj 173 263 del 600;
#X msg 660 464 /selectSHIELD 0 0 1 0 0;
#X msg 240 406 /moveto 0 -14000 -6000;
#X msg 240 436 /moveto 0 -10000 -6000;
#X msg 240 376 /moveto -19000 -26000 -28000;
#X obj 219 35 r descenteCanard3;
#X msg 320 329 /vitesse 1000 1400 1400;
#X msg 395 296 /acceleration 200 200 200;
#X connect 0 0 3 0;
#X connect 1 0 5 0;
#X connect 3 0 2 0;
#X connect 3 1 9 0;
#X connect 4 0 15 0;
#X connect 5 0 8 0;
#X connect 5 1 7 0;
#X connect 5 2 6 0;
#X connect 5 3 4 0;
#X connect 6 0 14 0;
#X connect 7 0 12 0;
#X connect 8 0 0 0;
#X connect 9 0 2 0;
#X connect 10 0 3 0;
#X connect 11 0 3 0;
#X connect 12 0 3 0;
#X connect 13 0 1 0;
#X connect 14 0 3 0;
#X connect 15 0 3 0;
#X coords 0 -1 1 1 200 20 1 100 100;
#X restore 560 285 pd descenteCanard3;
#N canvas 0 50 1394 958 descenteCanard2 0;
#X msg 166 382 /run 1;
#X obj 216 103 bng 15 250 50 0 empty empty run 17 7 0 10 -258113 -257985
-1;
#X msg 395 296 /acceleration 900 900 900;
#X obj 633 502 s to_pimotor;
#X obj 633 423 t a b;
#X obj 395 263 del 10;
#X obj 217 162 t b b b b b;
#X obj 336 263 del 200;
#X obj 263 263 del 400;
#X obj 173 263 del 600;
#X msg 320 329 /vitesse 1100 1400 1100;
#X msg 660 464 /selectSHIELD 0 1 0 0 0;
#X msg 241 376 /moveto -2000 2000 2000;
#X obj 220 50 r descenteCanard2;
#X connect 0 0 4 0;
#X connect 1 0 6 0;
#X connect 2 0 4 0;
#X connect 4 0 3 0;
#X connect 4 1 11 0;
#X connect 5 0 2 0;
#X connect 6 0 9 0;
#X connect 6 1 8 0;
#X connect 6 2 7 0;
#X connect 6 3 5 0;
#X connect 7 0 10 0;
#X connect 8 0 12 0;
#X connect 9 0 0 0;
#X connect 10 0 4 0;
#X connect 11 0 3 0;
#X connect 12 0 4 0;
#X connect 13 0 1 0;
#X coords 0 -1 1 1 200 20 1 100 100;
#X restore 560 265 pd descenteCanard2;
#N canvas 479 80 1394 958 respi_mare 0;
#X obj 216 103 bng 15 250 50 0 empty empty run 17 7 0 10 -257985 -1
-1;
#X obj 632 934 s to_pimotor;
#X msg 573 323 symbol foo;
#X msg 630 805 /run 1;
#X obj 641 688 t b a b b;
#X msg 701 747 /selectSHIELD 0 1 0 0 0;
#X obj 947 195 tgl 15 0 empty empty empty 17 7 0 10 -262144 -1 -1 0
1;
#X msg 949 157 1;
#X msg 846 140 0;
#X obj 258 103 bng 15 250 50 0 empty empty stop 17 7 0 10 -258113 -1
-1;
#X obj 561 239 t b b;
#X obj 914 250 spigot;
#X obj 723 704 del 8000;
#X obj 630 770 del 300;
#X msg 460 507 /moveto -30221 -14000 -15000;
#X msg 645 507 /moveto -28221 -14000 -15000;
#X obj 573 357 cycle 4;
#X msg 665 537 /moveto -25221 -12000 -15000;
#X msg 685 557 /moveto -25221 -15000 -12000;
#X obj 293 56 r stop_boucles_moteur;
#X obj 186 36 r respi_mare;
#X connect 0 0 10 0;
#X connect 2 0 16 0;
#X connect 3 0 1 0;
#X connect 4 0 13 0;
#X connect 4 1 1 0;
#X connect 4 2 5 0;
#X connect 4 3 12 0;
#X connect 5 0 1 0;
#X connect 6 0 11 1;
#X connect 7 0 6 0;
#X connect 8 0 6 0;
#X connect 9 0 8 0;
#X connect 10 0 11 0;
#X connect 10 1 7 0;
#X connect 11 0 2 0;
#X connect 12 0 11 0;
#X connect 13 0 3 0;
#X connect 14 0 4 0;
#X connect 15 0 4 0;
#X connect 16 0 14 0;
#X connect 16 1 15 0;
#X connect 16 2 17 0;
#X connect 16 3 18 0;
#X connect 17 0 4 0;
#X connect 18 0 4 0;
#X connect 19 0 9 0;
#X connect 20 0 0 0;
#X coords 0 -1 1 1 200 20 1 100 100;
#X restore 351 199 pd respi_mare;
#N canvas 479 80 1394 958 respi_1 0;
#X obj 216 103 bng 15 250 50 0 empty empty run 17 7 0 10 -257985 -1
-1;
#X obj 632 934 s to_pimotor;
#X msg 573 323 symbol foo;
#X msg 630 805 /run 1;
#X obj 641 688 t b a b b;
#X obj 947 195 tgl 15 0 empty empty empty 17 7 0 10 -262144 -1 -1 0
1;
#X msg 949 157 1;
#X msg 846 140 0;
#X obj 258 103 bng 15 250 50 0 empty empty stop 17 7 0 10 -258113 -1
-1;
#X obj 561 239 t b b;
#X obj 914 250 spigot;
#X obj 630 770 del 300;
#X msg 240 376 /moveto -2000 -6000 -12271;
#X msg 238 479 /moveto -7225 -6000 -9271;
#X msg 238 424 /moveto -2000 -6000 -9271;
#X obj 573 357 cycle 3;
#X msg 701 747 /selectSHIELD 1 0 0 0 0;
#X obj 213 56 r respi_1;
#X obj 293 56 r stop_boucles_moteur;
#X obj 723 704 del 7867;
#X connect 0 0 9 0;
#X connect 2 0 15 0;
#X connect 3 0 1 0;
#X connect 4 0 11 0;
#X connect 4 1 1 0;
#X connect 4 2 16 0;
#X connect 4 3 19 0;
#X connect 5 0 10 1;
#X connect 6 0 5 0;
#X connect 7 0 5 0;
#X connect 8 0 7 0;
#X connect 9 0 10 0;
#X connect 9 1 6 0;
#X connect 10 0 2 0;
#X connect 11 0 3 0;
#X connect 12 0 4 0;
#X connect 13 0 4 0;
#X connect 14 0 4 0;
#X connect 15 0 12 0;
#X connect 15 1 14 0;
#X connect 15 2 13 0;
#X connect 16 0 1 0;
#X connect 17 0 0 0;
#X connect 18 0 8 0;
#X connect 19 0 10 0;
#X coords 0 -1 1 1 200 20 1 100 100;
#X restore 351 179 pd respi_1;
#N canvas 479 80 1394 958 respi_3 0;
#X obj 216 103 bng 15 250 50 0 empty empty run 17 7 0 10 -257985 -1
-1;
#X obj 632 934 s to_pimotor;
#X msg 573 323 symbol foo;
#X msg 630 805 /run 1;
#X obj 641 688 t b a b b;
#X obj 947 195 tgl 15 0 empty empty empty 17 7 0 10 -262144 -1 -1 0
1;
#X msg 949 157 1;
#X msg 846 140 0;
#X obj 258 103 bng 15 250 50 0 empty empty stop 17 7 0 10 -258113 -1
-1;
#X obj 561 239 t b b;
#X obj 914 250 spigot;
#X obj 630 770 del 300;
#X obj 573 357 cycle 3;
#X obj 213 56 r respi_3;
#X msg 701 747 /selectSHIELD 0 0 1 0 0;
#X obj 293 56 r stop_boucles_moteur;
#X obj 723 704 del 7127;
#X msg 427 497 /moveto 20000 13000 18000;
#X msg 427 467 /moveto 24000 13000 18000;
#X msg 427 438 /moveto 20000 18000 13000;
#X connect 0 0 9 0;
#X connect 2 0 12 0;
#X connect 3 0 1 0;
#X connect 4 0 11 0;
#X connect 4 1 1 0;
#X connect 4 2 14 0;
#X connect 4 3 16 0;
#X connect 5 0 10 1;
#X connect 6 0 5 0;
#X connect 7 0 5 0;
#X connect 8 0 7 0;
#X connect 9 0 10 0;
#X connect 9 1 6 0;
#X connect 10 0 2 0;
#X connect 11 0 3 0;
#X connect 12 0 19 0;
#X connect 12 1 18 0;
#X connect 12 2 17 0;
#X connect 13 0 0 0;
#X connect 14 0 1 0;
#X connect 15 0 8 0;
#X connect 16 0 10 0;
#X connect 17 0 4 0;
#X connect 18 0 4 0;
#X connect 19 0 4 0;
#X coords 0 -1 1 1 200 20 1 100 100;
#X restore 351 219 pd respi_3;
#X msg 589 363 aconnect 128:1 28:0;
#X msg 589 345 aconnect 28:0 128:0;
#N canvas 242 122 1394 958 leve_canard_2 0;
#X msg 166 382 /run 1;
#X obj 216 103 bng 15 250 50 0 empty empty run 17 7 0 10 -258113 -257985
-1;
#X msg 395 296 /acceleration 900 900 900;
#X obj 633 502 s to_pimotor;
#X obj 629 422 t a b;
#X obj 395 263 del 10;
#X obj 217 162 t b b b b b;
#X obj 336 263 del 200;
#X obj 263 263 del 400;
#X obj 173 263 del 600;
#X obj 219 53 r leve_canard_2;
#X msg 660 464 /selectSHIELD 0 1 0 0 0;
#X msg 265 363 /moveto -1299 -23843 -23804;
#X msg 319 329 /vitesse 400 400 400;
#X connect 0 0 4 0;
#X connect 1 0 6 0;
#X connect 2 0 4 0;
#X connect 4 0 3 0;
#X connect 4 1 11 0;
#X connect 5 0 2 0;
#X connect 6 0 9 0;
#X connect 6 1 8 0;
#X connect 6 2 7 0;
#X connect 6 3 5 0;
#X connect 7 0 13 0;
#X connect 8 0 12 0;
#X connect 9 0 0 0;
#X connect 10 0 1 0;
#X connect 11 0 3 0;
#X connect 12 0 4 0;
#X connect 13 0 4 0;
#X coords 0 -1 1 1 200 20 1 100 100;
#X restore 560 142 pd leve_canard_2;
#N canvas 242 122 1394 958 eliseEtCanard_2 0;
#X msg 166 382 /run 1;
#X obj 216 103 bng 15 250 50 0 empty empty run 17 7 0 10 -258113 -257985
-1;
#X msg 395 296 /acceleration 900 900 900;
#X obj 633 502 s to_pimotor;
#X obj 629 422 t a b;
#X obj 395 263 del 10;
#X obj 217 162 t b b b b b;
#X obj 336 263 del 200;
#X obj 263 263 del 400;
#X obj 173 263 del 600;
#X msg 660 464 /selectSHIELD 0 1 0 0 0;
#X obj 219 53 r eliseEtCanard_2;
#X msg 265 363 /moveto -19269 -1272 -11271;
#X msg 320 329 /vitesse 400 400 400;
#X connect 0 0 4 0;
#X connect 1 0 6 0;
#X connect 2 0 4 0;
#X connect 4 0 3 0;
#X connect 4 1 10 0;
#X connect 5 0 2 0;
#X connect 6 0 9 0;
#X connect 6 1 8 0;
#X connect 6 2 7 0;
#X connect 6 3 5 0;
#X connect 7 0 13 0;
#X connect 8 0 12 0;
#X connect 9 0 0 0;
#X connect 10 0 3 0;
#X connect 11 0 1 0;
#X connect 12 0 4 0;
#X connect 13 0 4 0;
#X coords 0 -1 1 1 200 20 1 100 100;
#X restore 560 205 pd eliseEtCanard_2;
#N canvas 242 122 1394 958 eliseEtCanard2_2 0;
#X msg 166 382 /run 1;
#X obj 216 103 bng 15 250 50 0 empty empty run 17 7 0 10 -258113 -257985
-1;
#X msg 395 296 /acceleration 900 900 900;
#X obj 633 502 s to_pimotor;
#X obj 629 422 t a b;
#X obj 395 263 del 10;
#X obj 217 162 t b b b b b;
#X obj 336 263 del 200;
#X obj 263 263 del 400;
#X obj 173 263 del 600;
#X msg 660 464 /selectSHIELD 0 1 0 0 0;
#X obj 219 53 r eliseEtCanard2_2;
#X msg 265 363 /moveto -14269 3728 -6271;
#X msg 320 329 /vitesse 400 400 400;
#X connect 0 0 4 0;
#X connect 1 0 6 0;
#X connect 2 0 4 0;
#X connect 4 0 3 0;
#X connect 4 1 10 0;
#X connect 5 0 2 0;
#X connect 6 0 9 0;
#X connect 6 1 8 0;
#X connect 6 2 7 0;
#X connect 6 3 5 0;
#X connect 7 0 13 0;
#X connect 8 0 12 0;
#X connect 9 0 0 0;
#X connect 10 0 3 0;
#X connect 11 0 1 0;
#X connect 12 0 4 0;
#X connect 13 0 4 0;
#X coords 0 -1 1 1 200 20 1 100 100;
#X restore 560 225 pd eliseEtCanard2_2;
#X msg 739 363 aconnect 128:1 20:0;
#X msg 739 345 aconnect 20:0 128:0;
#N canvas 0 50 1394 958 descenteCanard_1 0;
#X msg 166 382 /run 1;
#X obj 216 103 bng 15 250 50 0 empty empty run 17 7 0 10 -258113 -257985
-1;
#X msg 395 296 /acceleration 900 900 900;
#X obj 633 502 s to_pimotor;
#X obj 633 423 t a b;
#X obj 395 263 del 10;
#X obj 217 162 t b b b b b;
#X obj 336 263 del 200;
#X obj 263 263 del 400;
#X obj 173 263 del 600;
#X msg 660 464 /selectSHIELD 1 0 0 0 0;
#X msg 238 479 /moveto -7225 -6000 -9271;
#X msg 238 424 /moveto -2000 -6000 -9271;
#X msg 320 329 /vitesse 1500 1500 1500;
#X msg 240 376 /moveto -19000 -26000 -26000;
#X obj 211 57 r descenteCanard_1;
#X connect 0 0 4 0;
#X connect 1 0 6 0;
#X connect 2 0 4 0;
#X connect 4 0 3 0;
#X connect 4 1 10 0;
#X connect 5 0 2 0;
#X connect 6 0 9 0;
#X connect 6 1 8 0;
#X connect 6 2 7 0;
#X connect 6 3 5 0;
#X connect 7 0 13 0;
#X connect 8 0 14 0;
#X connect 9 0 0 0;
#X connect 10 0 3 0;
#X connect 11 0 4 0;
#X connect 12 0 4 0;
#X connect 13 0 4 0;
#X connect 14 0 4 0;
#X connect 15 0 1 0;
#X coords 0 -1 1 1 200 20 1 100 100;
#X restore 790 245 pd descenteCanard_1;
#N canvas 0 50 1394 958 descenteCanard_2 0;
#X msg 166 382 /run 1;
#X obj 216 103 bng 15 250 50 0 empty empty run 17 7 0 10 -258113 -257985
-1;
#X msg 395 296 /acceleration 900 900 900;
#X obj 633 502 s to_pimotor;
#X obj 633 423 t a b;
#X obj 395 263 del 10;
#X obj 217 162 t b b b b b;
#X obj 336 263 del 200;
#X obj 263 263 del 400;
#X obj 173 263 del 600;
#X msg 660 464 /selectSHIELD 0 1 0 0 0;
#X msg 241 376 /moveto -18225 -6000 -10000;
#X msg 320 329 /vitesse 1100 1400 1100;
#X obj 220 50 r descenteCanard_2;
#X connect 0 0 4 0;
#X connect 1 0 6 0;
#X connect 2 0 4 0;
#X connect 4 0 3 0;
#X connect 4 1 10 0;
#X connect 5 0 2 0;
#X connect 6 0 9 0;
#X connect 6 1 8 0;
#X connect 6 2 7 0;
#X connect 6 3 5 0;
#X connect 7 0 12 0;
#X connect 8 0 11 0;
#X connect 9 0 0 0;
#X connect 10 0 3 0;
#X connect 11 0 4 0;
#X connect 12 0 4 0;
#X connect 13 0 1 0;
#X coords 0 -1 1 1 200 20 1 100 100;
#X restore 790 265 pd descenteCanard_2;
#N canvas 0 50 1394 958 descenteCanard_3 0;
#X msg 166 382 /run 1;
#X obj 216 103 bng 15 250 50 0 empty empty run 17 7 0 10 -258113 -257985
-1;
#X msg 395 296 /acceleration 900 900 900;
#X obj 633 502 s to_pimotor;
#X obj 633 423 t a b;
#X obj 395 263 del 10;
#X obj 217 162 t b b b b b;
#X obj 336 263 del 200;
#X obj 263 263 del 400;
#X obj 173 263 del 600;
#X msg 660 464 /selectSHIELD 0 0 1 0 0;
#X msg 240 406 /moveto 0 -14000 -6000;
#X msg 240 436 /moveto 0 -10000 -6000;
#X msg 240 376 /moveto -19000 -26000 -26000;
#X msg 320 329 /vitesse 1500 1500 1500;
#X obj 219 35 r descenteCanard_3;
#X connect 0 0 4 0;
#X connect 1 0 6 0;
#X connect 2 0 4 0;
#X connect 4 0 3 0;
#X connect 4 1 10 0;
#X connect 5 0 2 0;
#X connect 6 0 9 0;
#X connect 6 1 8 0;
#X connect 6 2 7 0;
#X connect 6 3 5 0;
#X connect 7 0 14 0;
#X connect 8 0 13 0;
#X connect 9 0 0 0;
#X connect 10 0 3 0;
#X connect 11 0 4 0;
#X connect 12 0 4 0;
#X connect 13 0 4 0;
#X connect 14 0 4 0;
#X connect 15 0 1 0;
#X coords 0 -1 1 1 200 20 1 100 100;
#X restore 790 285 pd descenteCanard_3;
#N canvas 2 88 1394 958 all1 0;
#X msg 166 382 /run 1;
#X obj 216 103 bng 15 250 50 0 empty empty run 17 7 0 10 -257985 -1
-1;
#X obj 457 494 s to_pimotor;
#X obj 457 415 t a b;
#X obj 395 263 del 10;
#X obj 217 162 t b b b b b;
#X msg 484 456 /selectSHIELD 1 1 1 0 0;
#X obj 336 263 del 200;
#X obj 263 263 del 400;
#X obj 173 263 del 600;
#X msg 395 296 /acceleration 1000 1000 1000;
#X msg 350 328 /vitesse 1600 1600 1600;
#X obj 227 53 r all1;
#X msg 223 358 /moveto -15000 -20000 -20000;
#X connect 0 0 3 0;
#X connect 1 0 5 0;
#X connect 3 0 2 0;
#X connect 3 1 6 0;
#X connect 4 0 10 0;
#X connect 5 0 9 0;
#X connect 5 1 8 0;
#X connect 5 2 7 0;
#X connect 5 3 4 0;
#X connect 6 0 2 0;
#X connect 7 0 11 0;
#X connect 8 0 13 0;
#X connect 9 0 0 0;
#X connect 10 0 3 0;
#X connect 11 0 3 0;
#X connect 12 0 1 0;
#X connect 13 0 3 0;
#X coords 0 -1 1 1 200 20 1 100 100;
#X restore 818 100 pd all1;
#N canvas 2 88 1394 958 all2 0;
#X msg 166 382 /run 1;
#X obj 216 103 bng 15 250 50 0 empty empty run 17 7 0 10 -257985 -1
-1;
#X obj 457 494 s to_pimotor;
#X obj 457 415 t a b;
#X obj 395 263 del 10;
#X obj 217 162 t b b b b b;
#X msg 484 456 /selectSHIELD 1 1 1 0 0;
#X obj 336 263 del 200;
#X obj 263 263 del 400;
#X obj 173 263 del 600;
#X msg 395 296 /acceleration 1000 1000 1000;
#X msg 350 328 /vitesse 1600 1600 1600;
#X obj 227 53 r all2;
#X msg 223 358 /moveto -20000 -15000 -15000;
#X connect 0 0 3 0;
#X connect 1 0 5 0;
#X connect 3 0 2 0;
#X connect 3 1 6 0;
#X connect 4 0 10 0;
#X connect 5 0 9 0;
#X connect 5 1 8 0;
#X connect 5 2 7 0;
#X connect 5 3 4 0;
#X connect 6 0 2 0;
#X connect 7 0 11 0;
#X connect 8 0 13 0;
#X connect 9 0 0 0;
#X connect 10 0 3 0;
#X connect 11 0 3 0;
#X connect 12 0 1 0;
#X connect 13 0 3 0;
#X coords 0 -1 1 1 200 20 1 100 100;
#X restore 818 130 pd all2;
#X obj 202 70 r ipmotor;
#X msg 134 350 connect 192.168.10.108 5000;
#X connect 2 0 122 0;
#X connect 2 1 123 0;
#X connect 2 2 124 0;
#X connect 2 3 49 0;
#X connect 2 4 54 0;
#X connect 2 5 59 0;
#X connect 2 6 41 0;
#X connect 2 7 42 0;
#X connect 3 0 16 0;
#X connect 3 1 18 0;
#X connect 3 2 20 0;
#X connect 3 3 22 0;
#X connect 3 4 24 0;
#X connect 4 0 102 0;
#X connect 4 1 103 0;
#X connect 4 2 104 0;
#X connect 4 3 101 0;
#X connect 4 4 105 0;
#X connect 4 5 106 0;
#X connect 4 6 107 0;
#X connect 4 7 108 0;
#X connect 5 0 81 0;
#X connect 5 1 90 0;
#X connect 5 2 91 0;
#X connect 5 3 78 0;
#X connect 5 4 96 0;
#X connect 5 5 97 0;
#X connect 5 6 100 0;
#X connect 5 7 99 0;
#X connect 6 0 109 0;
#X connect 6 3 111 0;
#X connect 8 0 7 1;
#X connect 9 0 65 0;
#X connect 10 1 15 0;
#X connect 11 0 15 0;
#X connect 11 1 15 1;
#X connect 12 0 15 0;
#X connect 12 1 15 2;
#X connect 13 0 15 0;
#X connect 13 1 15 3;
#X connect 14 0 15 0;
#X connect 14 1 15 4;
#X connect 15 0 9 0;
#X connect 16 0 17 0;
#X connect 16 1 10 0;
#X connect 17 0 10 0;
#X connect 18 0 19 0;
#X connect 18 1 11 0;
#X connect 19 0 11 0;
#X connect 20 0 21 0;
#X connect 20 1 12 0;
#X connect 21 0 12 0;
#X connect 22 0 23 0;
#X connect 22 1 13 0;
#X connect 23 0 13 0;
#X connect 24 0 25 0;
#X connect 24 1 14 0;
#X connect 25 0 14 0;
#X connect 26 0 27 0;
#X connect 27 0 28 0;
#X connect 28 0 32 0;
#X connect 30 0 29 0;
#X connect 31 0 29 0;
#X connect 32 0 43 1;
#X connect 32 0 138 0;
#X connect 33 0 34 0;
#X connect 34 0 35 0;
#X connect 35 0 36 0;
#X connect 36 0 43 2;
#X connect 36 0 137 0;
#X connect 37 0 38 0;
#X connect 38 0 39 0;
#X connect 39 0 40 0;
#X connect 40 0 43 3;
#X connect 40 0 136 0;
#X connect 41 0 2 0;
#X connect 41 0 2 1;
#X connect 41 0 2 2;
#X connect 42 0 2 3;
#X connect 42 0 2 4;
#X connect 42 0 2 5;
#X connect 43 0 65 0;
#X connect 44 0 43 0;
#X connect 45 0 44 0;
#X connect 46 0 47 0;
#X connect 47 0 48 0;
#X connect 48 0 50 0;
#X connect 49 0 46 0;
#X connect 50 0 61 1;
#X connect 50 0 133 0;
#X connect 51 0 52 0;
#X connect 52 0 53 0;
#X connect 53 0 55 0;
#X connect 54 0 51 0;
#X connect 55 0 61 2;
#X connect 55 0 134 0;
#X connect 56 0 57 0;
#X connect 57 0 58 0;
#X connect 58 0 60 0;
#X connect 59 0 56 0;
#X connect 60 0 61 3;
#X connect 60 0 135 0;
#X connect 61 0 65 0;
#X connect 62 0 63 0;
#X connect 63 0 61 0;
#X connect 64 0 45 0;
#X connect 64 1 45 0;
#X connect 64 2 45 0;
#X connect 64 3 62 0;
#X connect 64 4 62 0;
#X connect 64 5 62 0;
#X connect 64 6 45 0;
#X connect 64 7 62 0;
#X connect 65 0 126 0;
#X connect 66 0 65 0;
#X connect 67 0 98 0;
#X connect 68 0 80 0;
#X connect 69 0 92 0;
#X connect 70 0 93 0;
#X connect 71 0 79 0;
#X connect 72 0 94 0;
#X connect 73 0 95 0;
#X connect 74 0 77 0;
#X connect 75 0 74 0;
#X connect 75 1 74 1;
#X connect 76 0 66 1;
#X connect 76 0 130 0;
#X connect 77 0 76 0;
#X connect 78 0 71 0;
#X connect 79 0 75 0;
#X connect 80 0 74 0;
#X connect 81 0 68 0;
#X connect 82 0 85 0;
#X connect 83 0 82 0;
#X connect 83 1 82 1;
#X connect 84 0 66 2;
#X connect 84 0 131 0;
#X connect 85 0 84 0;
#X connect 86 0 89 0;
#X connect 87 0 86 0;
#X connect 87 1 86 1;
#X connect 88 0 66 3;
#X connect 88 0 132 0;
#X connect 89 0 88 0;
#X connect 90 0 69 0;
#X connect 91 0 70 0;
#X connect 92 0 82 0;
#X connect 93 0 86 0;
#X connect 94 0 83 0;
#X connect 95 0 87 0;
#X connect 96 0 72 0;
#X connect 97 0 73 0;
#X connect 98 0 66 0;
#X connect 99 0 5 3;
#X connect 99 0 5 4;
#X connect 99 0 5 5;
#X connect 100 0 5 0;
#X connect 100 0 5 1;
#X connect 100 0 5 2;
#X connect 101 0 5 3;
#X connect 102 0 5 0;
#X connect 103 0 5 1;
#X connect 104 0 5 2;
#X connect 105 0 5 4;
#X connect 106 0 5 5;
#X connect 107 0 5 6;
#X connect 108 0 5 7;
#X connect 109 0 67 0;
#X connect 110 0 65 0;
#X connect 111 0 112 0;
#X connect 112 0 110 0;
#X connect 113 0 114 0;
#X connect 114 0 65 0;
#X connect 116 0 7 0;
#X connect 122 0 26 0;
#X connect 123 0 33 0;
#X connect 124 0 37 0;
#X connect 127 0 3 0;
#X connect 127 1 3 1;
#X connect 127 2 3 2;
#X connect 127 3 3 3;
#X connect 127 4 3 4;
#X connect 139 0 30 0;
#X connect 141 0 121 0;
#X connect 142 0 121 0;
#X connect 154 0 121 0;
#X connect 155 0 121 0;
#X connect 159 0 121 0;
#X connect 160 0 121 0;
#X connect 166 0 7 1;
#X connect 167 0 7 1;
#X coords 0 -1 1 1 800 300 1 10 10;
